<svg width="128" height="97" viewBox="0 0 128 97" fill="none" xmlns="http://www.w3.org/2000/svg">
<path d="M59.7931 74.6133H110L105.172 82.6133H54L59.7931 74.6133Z" fill="white" stroke="#222222" stroke-width="5" stroke-linejoin="round"/>
<path d="M100.259 69.0703H68.2588L74.3864 65.0703H94.1311L100.259 69.0703Z" fill="#222222" stroke="#222222" stroke-width="2.15833" stroke-linejoin="round"/>
<path d="M94.2588 59.0703H74.2588V65.0703H94.2588V59.0703Z" fill="#222222" stroke="#222222" stroke-width="2.15833" stroke-linejoin="round"/>
<path d="M119.902 3.09961H49.5574C47.0808 3.56021 46.205 4.3698 45.4194 6.67104V47.7425C45.5026 50.8882 46.2982 52.1673 49.5574 53.0996H119.902C123.194 52.83 124.546 52.1924 125.419 49.5282V7.86151C124.894 4.70505 123.498 3.8078 119.902 3.09961Z" fill="white" stroke="#222222" stroke-width="5"/>
<circle cx="51.8452" cy="73.4585" r="7.22648" fill="white" stroke="#222222" stroke-width="3.2375"/>
<path d="M28.2633 57.5971C39.7525 57.5971 49.1152 48.5377 49.1152 37.3029C49.1152 26.0681 39.7525 17.0088 28.2633 17.0088C16.7742 17.0088 7.41144 26.0681 7.41144 37.3029C7.41144 48.5377 16.7742 57.5971 28.2633 57.5971ZM16.6222 57.8509C14.3658 56.6602 11.1868 56.899 9.69184 59.3399C4.87336 67.2073 1.71157 78.0939 1.14902 90.2229C1.02118 92.9793 3.32528 95.1279 6.02921 95.1279H50.4975C53.2014 95.1279 55.5055 92.9793 55.3777 90.2229C54.8154 78.0953 51.655 67.2067 46.8374 59.3388C45.3425 56.8975 42.163 56.6588 39.9066 57.8498C36.4478 59.6755 32.4824 60.7138 28.2633 60.7138C24.0451 60.7138 20.0804 59.6759 16.6222 57.8509Z" fill="#222222" stroke="white" stroke-width="2" stroke-linejoin="round"/>
</svg>
