<svg width="95" height="93" viewBox="0 0 95 93" fill="none" xmlns="http://www.w3.org/2000/svg">
<path d="M72.5777 27.3715L73.1367 27.2846C73.0568 26.6766 72.8174 26.1553 72.418 25.7211L50.1346 1.483C49.9749 1.30925 49.895 1.22238 49.7352 1.13551L49.6553 1.04863C49.5755 0.961756 49.4157 0.87488 49.3358 0.87488L49.1762 0.788007C49.0963 0.788007 48.9366 0.701133 48.8567 0.701133C48.6969 0.701133 48.5372 0.614258 48.2975 0.614258H2.77239C1.33475 0.614258 0.136719 1.91737 0.136719 3.48112V81.6681C0.136719 81.755 0.136719 81.9288 0.136719 82.0157C0.136719 82.1025 0.136719 82.2761 0.136719 82.363V89.7473C0.136719 91.3111 1.33475 92.6143 2.77239 92.6143H70.5012C71.9387 92.6143 73.1367 91.3111 73.1367 89.7473V27.7191C73.1367 27.5453 73.1367 27.4584 73.1367 27.2846L72.5777 27.3715ZM50.9333 10.6048L63.9518 24.7653L50.9333 24.6784V10.6048ZM67.7856 86.9675H5.40805V82.4499C5.40805 82.363 5.40805 82.1894 5.40805 82.1025C5.40805 82.0157 5.40805 81.8419 5.40805 81.755V6.43485H45.5821V27.5453C45.5821 29.1091 46.7801 30.4122 48.2176 30.4122L67.7856 30.4991V86.9675Z" fill="#222222"/>
<path d="M34.9761 80.8506H54.9761" stroke="#222222" stroke-width="4" stroke-linecap="round"/>
<path d="M11.9761 62.8506H40.6805" stroke="#222222" stroke-width="4" stroke-linecap="round"/>
<path d="M11.9761 54.8506H40.6805" stroke="#222222" stroke-width="4" stroke-linecap="round"/>
<path d="M11.9761 46.5488H48.8818" stroke="#222222" stroke-width="4" stroke-linecap="round"/>
<path d="M11.9761 38.1963H48.8818" stroke="#222222" stroke-width="4" stroke-linecap="round"/>
<path d="M58.4397 54.9714L86.0635 27.3477L92.3011 33.5853L65.5684 61.209L49.5288 71.011L58.4397 54.9714Z" fill="white"/>
<path d="M58.4397 54.9714L86.0635 27.3477L92.3011 33.5853L65.5684 61.209M58.4397 54.9714L49.5288 71.011L65.5684 61.209M58.4397 54.9714L65.5684 61.209" stroke="#222222" stroke-width="3.47847" stroke-linejoin="round"/>
</svg>
