<svg width="121" height="93" viewBox="0 0 121 93" fill="none" xmlns="http://www.w3.org/2000/svg">
<path d="M70.667 80.624H20.667L30.2415 73.624H61.0925L70.667 80.624Z" fill="#222222" stroke="#222222" stroke-width="2.15833" stroke-linejoin="round"/>
<path d="M61.667 64.624H29.667V73.624H61.667V64.624Z" fill="#222222" stroke="#222222" stroke-width="2.15833" stroke-linejoin="round"/>
<rect x="3.16699" y="3.12402" width="80" height="56" rx="5.5" fill="white" stroke="#222222" stroke-width="5"/>
<path d="M28.8754 32.256C35.6667 32.256 41.2211 26.898 41.2211 20.2291C41.2211 13.5601 35.6667 8.20215 28.8754 8.20215C22.0841 8.20215 16.5297 13.5601 16.5297 20.2291C16.5297 26.898 22.0841 32.256 28.8754 32.256ZM22.4222 31.5936C21.001 30.8436 18.9049 30.9526 17.896 32.5998C15.0972 37.1696 13.2752 43.465 12.9511 50.4539C12.8655 52.2981 14.4038 53.7055 16.1682 53.7055H41.5825C43.3469 53.7055 44.8852 52.2981 44.7997 50.4539C44.4757 43.4659 42.6545 37.1693 39.8562 32.5992C38.8473 30.9517 36.7509 30.8428 35.3296 31.593C33.4134 32.6045 31.2157 33.1803 28.8754 33.1803C26.5355 33.1803 24.3382 32.6047 22.4222 31.5936Z" fill="#222222" stroke="white" stroke-width="2" stroke-linejoin="round"/>
<path d="M52.667 24.624C52.1912 25.2803 50.3047 25.7334 45.667 26.624C47.1616 24.6331 47.7854 23.5378 47.667 21.624L52.667 24.624Z" fill="#222222"/>
<ellipse cx="56.667" cy="17.124" rx="11" ry="8.5" fill="#222222"/>
<path d="M91.2075 51.9332C103.322 51.9332 113.192 42.3811 113.192 30.5384C113.192 18.6957 103.322 9.14355 91.2075 9.14355C79.0929 9.14355 69.2231 18.6957 69.2231 30.5384C69.2231 42.3811 79.0929 51.9332 91.2075 51.9332ZM78.8756 52.3091C76.5081 51.0597 73.1848 51.3158 71.6252 53.8623C66.5378 62.1688 63.1976 73.6666 62.6033 86.48C62.4699 89.3579 64.8759 91.6052 67.705 91.6052H114.71C117.539 91.6052 119.945 89.3579 119.812 86.48C119.218 73.6681 115.879 62.1681 110.793 53.8612C109.233 51.3142 105.909 51.0582 103.542 52.3079C99.8775 54.242 95.6767 55.3419 91.2075 55.3419C86.7392 55.3419 82.5392 54.2425 78.8756 52.3091Z" fill="#222222" stroke="white" stroke-width="2" stroke-linejoin="round"/>
</svg>
