<svg width="113" height="81" viewBox="0 0 113 81" fill="none" xmlns="http://www.w3.org/2000/svg">
<path d="M110.47 67.7155H104.862V7.90589C104.862 3.78953 101.503 0.429688 97.3863 0.429688H15.137C11.0206 0.429688 7.66077 3.78953 7.66077 7.90589V67.7155H2.05362C0.929965 67.7155 0.18457 68.472 0.18457 69.5845C0.18457 75.7479 5.23545 80.7988 11.3989 80.7988H101.124C107.288 80.7988 112.339 75.7479 112.339 69.5845C112.339 68.472 111.593 67.7155 110.47 67.7155ZM11.3989 7.90589C11.3989 5.84771 13.0788 4.16779 15.137 4.16779H97.3863C99.4445 4.16779 101.124 5.84771 101.124 7.90589V67.7155H11.3989V7.90589ZM101.124 77.0607H11.3989C7.8499 77.0607 5.04632 74.6354 4.1118 71.4536H45.0418C45.0418 72.5772 45.7872 73.3226 46.9108 73.3226H65.6013C66.725 73.3226 67.4704 72.5772 67.4704 71.4536H108.4C107.477 74.6354 104.673 77.0607 101.124 77.0607Z" fill="#222222"/>
<path d="M76.8065 19.1211H35.6874C34.5638 19.1211 33.8184 19.8665 33.8184 20.9901V50.8949C33.8184 52.0186 34.5638 52.764 35.6874 52.764H76.8065C77.9302 52.764 78.6756 52.0186 78.6756 50.8949V20.9901C78.6867 19.8665 77.9302 19.1211 76.8065 19.1211ZM45.0327 45.2878H41.2946C40.1709 45.2878 39.4255 44.5424 39.4255 43.4187C39.4255 42.2951 40.1709 41.5497 41.2946 41.5497H45.0327C46.1563 41.5497 46.9017 42.2951 46.9017 43.4187C46.9017 44.5424 46.1563 45.2878 45.0327 45.2878ZM45.0327 37.8116H41.2946C40.1709 37.8116 39.4255 37.0662 39.4255 35.9425C39.4255 34.8189 40.1709 34.0735 41.2946 34.0735H45.0327C46.1563 34.0735 46.9017 34.8189 46.9017 35.9425C46.9017 37.0662 46.1563 37.8116 45.0327 37.8116ZM45.0327 30.3354H41.2946C40.1709 30.3354 39.4255 29.59 39.4255 28.4663C39.4255 27.3427 40.1709 26.5973 41.2946 26.5973H45.0327C46.1563 26.5973 46.9017 27.3427 46.9017 28.4663C46.9017 29.59 46.1563 30.3354 45.0327 30.3354ZM71.1994 45.2878H54.3779C53.2543 45.2878 52.5089 44.5424 52.5089 43.4187C52.5089 42.2951 53.2543 41.5497 54.3779 41.5497H71.1994C72.323 41.5497 73.0684 42.2951 73.0684 43.4187C73.0684 44.5424 72.323 45.2878 71.1994 45.2878ZM71.1994 37.8116H54.3779C53.2543 37.8116 52.5089 37.0662 52.5089 35.9425C52.5089 34.8189 53.2543 34.0735 54.3779 34.0735H71.1994C72.323 34.0735 73.0684 34.8189 73.0684 35.9425C73.0684 37.0662 72.323 37.8116 71.1994 37.8116ZM71.1994 30.3354H54.3779C53.2543 30.3354 52.5089 29.59 52.5089 28.4663C52.5089 27.3427 53.2543 26.5973 54.3779 26.5973H71.1994C72.323 26.5973 73.0684 27.3427 73.0684 28.4663C73.0684 29.59 72.323 30.3354 71.1994 30.3354Z" fill="#222222"/>
<path d="M95.5131 7.9082H17.0019C15.8782 7.9082 15.1328 8.6536 15.1328 9.77725V62.1107C15.1328 63.2343 15.8782 63.9797 17.0019 63.9797H95.5131C96.6367 63.9797 97.3821 63.2343 97.3821 62.1107V9.77725C97.3821 8.6536 96.6256 7.9082 95.5131 7.9082ZM82.4297 50.8964C82.4297 54.0782 80.0044 56.5035 76.8226 56.5035H35.6924C32.5105 56.5035 30.0852 54.0782 30.0852 50.8964V20.9916C30.0852 17.8097 32.5105 15.3844 35.6924 15.3844H76.8115C79.9933 15.3844 82.4186 17.8097 82.4186 20.9916V50.8964H82.4297Z" fill="#222222"/>
</svg>
